<mxfile host="app.diagrams.net" modified="2024-02-08T09:55:26.142Z" agent="Mozilla/5.0 (Windows NT 10.0; Win64; x64) AppleWebKit/537.36 (KHTML, like Gecko) Chrome/121.0.0.0 Safari/537.36" etag="6ER8XhSsIRclAuRac-Ep" version="23.1.2" type="device">
  <diagram name="Page-1" id="zZX4nYmtyKIF-4A3xV5D">
    <mxGraphModel dx="3294" dy="1696" grid="1" gridSize="10" guides="1" tooltips="1" connect="1" arrows="1" fold="1" page="1" pageScale="1" pageWidth="827" pageHeight="1169" math="0" shadow="0">
      <root>
        <mxCell id="0" />
        <mxCell id="1" parent="0" />
        <mxCell id="ettLM4A4UMWrCc5uHka5-1" value="" style="rounded=0;whiteSpace=wrap;html=1;" vertex="1" parent="1">
          <mxGeometry x="189" y="130" width="450" height="800" as="geometry" />
        </mxCell>
        <mxCell id="ettLM4A4UMWrCc5uHka5-2" value="JoQuiZ" style="text;html=1;strokeColor=none;fillColor=none;align=center;verticalAlign=middle;whiteSpace=wrap;rounded=0;fontSize=100;" vertex="1" parent="1">
          <mxGeometry x="284" y="170" width="260" height="130" as="geometry" />
        </mxCell>
        <mxCell id="ettLM4A4UMWrCc5uHka5-3" value="&lt;font style=&quot;font-size: 50px;&quot;&gt;Quiz 1&lt;/font&gt;" style="rounded=0;whiteSpace=wrap;html=1;" vertex="1" parent="1">
          <mxGeometry x="274" y="350" width="280" height="80" as="geometry" />
        </mxCell>
        <mxCell id="ettLM4A4UMWrCc5uHka5-13" value="&lt;font style=&quot;font-size: 50px;&quot;&gt;Quiz 2&lt;/font&gt;" style="rounded=0;whiteSpace=wrap;html=1;" vertex="1" parent="1">
          <mxGeometry x="274" y="470" width="280" height="80" as="geometry" />
        </mxCell>
        <mxCell id="ettLM4A4UMWrCc5uHka5-14" value="&lt;font style=&quot;font-size: 50px;&quot;&gt;Quiz 3&lt;br&gt;&lt;/font&gt;" style="rounded=0;whiteSpace=wrap;html=1;" vertex="1" parent="1">
          <mxGeometry x="274" y="590" width="280" height="80" as="geometry" />
        </mxCell>
        <mxCell id="ettLM4A4UMWrCc5uHka5-15" value="&lt;font style=&quot;font-size: 50px;&quot;&gt;Quiz 4&lt;/font&gt;" style="rounded=0;whiteSpace=wrap;html=1;" vertex="1" parent="1">
          <mxGeometry x="274" y="710" width="280" height="80" as="geometry" />
        </mxCell>
        <mxCell id="ettLM4A4UMWrCc5uHka5-17" value="&lt;font style=&quot;font-size: 50px;&quot;&gt;Quiz 5&lt;br&gt;&lt;/font&gt;" style="rounded=0;whiteSpace=wrap;html=1;" vertex="1" parent="1">
          <mxGeometry x="274" y="830" width="280" height="80" as="geometry" />
        </mxCell>
        <mxCell id="ettLM4A4UMWrCc5uHka5-18" value="" style="rounded=0;whiteSpace=wrap;html=1;" vertex="1" parent="1">
          <mxGeometry x="183" y="1350" width="450" height="800" as="geometry" />
        </mxCell>
        <mxCell id="ettLM4A4UMWrCc5uHka5-19" value="Nom Quiz" style="text;html=1;strokeColor=none;fillColor=none;align=center;verticalAlign=middle;whiteSpace=wrap;rounded=0;fontSize=90;" vertex="1" parent="1">
          <mxGeometry x="120" y="1380" width="576" height="130" as="geometry" />
        </mxCell>
        <mxCell id="ettLM4A4UMWrCc5uHka5-21" value="&lt;font style=&quot;font-size: 50px;&quot;&gt;Réponse A&lt;/font&gt;" style="rounded=0;whiteSpace=wrap;html=1;" vertex="1" parent="1">
          <mxGeometry x="268" y="1720" width="280" height="80" as="geometry" />
        </mxCell>
        <mxCell id="ettLM4A4UMWrCc5uHka5-22" value="&lt;font style=&quot;font-size: 50px;&quot;&gt;Réponse B&lt;br&gt;&lt;/font&gt;" style="rounded=0;whiteSpace=wrap;html=1;" vertex="1" parent="1">
          <mxGeometry x="268" y="1840" width="280" height="80" as="geometry" />
        </mxCell>
        <mxCell id="ettLM4A4UMWrCc5uHka5-23" value="&lt;font style=&quot;font-size: 50px;&quot;&gt;Réponse C&lt;/font&gt;" style="rounded=0;whiteSpace=wrap;html=1;" vertex="1" parent="1">
          <mxGeometry x="268" y="1974" width="280" height="80" as="geometry" />
        </mxCell>
        <mxCell id="ettLM4A4UMWrCc5uHka5-25" value="&lt;font style=&quot;font-size: 31px;&quot;&gt;Question :&lt;/font&gt;" style="text;html=1;strokeColor=none;fillColor=none;align=center;verticalAlign=middle;whiteSpace=wrap;rounded=0;" vertex="1" parent="1">
          <mxGeometry x="308" y="1520" width="230" height="30" as="geometry" />
        </mxCell>
        <mxCell id="ettLM4A4UMWrCc5uHka5-26" value="&lt;font style=&quot;font-size: 31px;&quot;&gt;Lorem ipsum dolares Joshua ipsum Lorem Ipsum ?&lt;/font&gt;" style="text;html=1;strokeColor=none;fillColor=none;align=center;verticalAlign=middle;whiteSpace=wrap;rounded=0;" vertex="1" parent="1">
          <mxGeometry x="197" y="1580" width="436" height="30" as="geometry" />
        </mxCell>
        <mxCell id="ettLM4A4UMWrCc5uHka5-27" value="" style="rounded=0;whiteSpace=wrap;html=1;" vertex="1" parent="1">
          <mxGeometry x="173" y="2490" width="450" height="800" as="geometry" />
        </mxCell>
        <mxCell id="ettLM4A4UMWrCc5uHka5-28" value="Résultat" style="text;html=1;strokeColor=none;fillColor=none;align=center;verticalAlign=middle;whiteSpace=wrap;rounded=0;fontSize=90;" vertex="1" parent="1">
          <mxGeometry x="110" y="2520" width="576" height="130" as="geometry" />
        </mxCell>
        <mxCell id="ettLM4A4UMWrCc5uHka5-29" value="&lt;font style=&quot;font-size: 42px;&quot;&gt;Recommencer&lt;/font&gt;" style="rounded=0;whiteSpace=wrap;html=1;" vertex="1" parent="1">
          <mxGeometry x="268" y="2920" width="280" height="80" as="geometry" />
        </mxCell>
        <mxCell id="ettLM4A4UMWrCc5uHka5-30" value="&lt;font style=&quot;&quot;&gt;&lt;font style=&quot;font-size: 42px;&quot;&gt;Menu principal&lt;/font&gt;&lt;br&gt;&lt;/font&gt;" style="rounded=0;whiteSpace=wrap;html=1;" vertex="1" parent="1">
          <mxGeometry x="268" y="3060" width="280" height="80" as="geometry" />
        </mxCell>
        <mxCell id="ettLM4A4UMWrCc5uHka5-32" value="&lt;font style=&quot;font-size: 31px;&quot;&gt;Nombre de points&lt;/font&gt;" style="text;html=1;strokeColor=none;fillColor=none;align=center;verticalAlign=middle;whiteSpace=wrap;rounded=0;" vertex="1" parent="1">
          <mxGeometry x="257" y="2680" width="302" height="30" as="geometry" />
        </mxCell>
        <mxCell id="ettLM4A4UMWrCc5uHka5-34" value="&lt;font style=&quot;font-size: 75px;&quot;&gt;000&lt;br&gt;&lt;/font&gt;" style="rounded=1;whiteSpace=wrap;html=1;" vertex="1" parent="1">
          <mxGeometry x="298" y="2730" width="200" height="110" as="geometry" />
        </mxCell>
      </root>
    </mxGraphModel>
  </diagram>
</mxfile>
